<svg xmlns="http://www.w3.org/2000/svg" xmlns:xlink="http://www.w3.org/1999/xlink" xmlns:lucid="lucid" width="725.05" height="182.77"><g transform="translate(-1060 -578.5)" lucid:page-tab-id="bejXgELcO1zq"><path d="M1000 500h1000v500H1000z" fill="#fff"/><path d="M1180 580h460v100h-460z" fill="#edf5ff"/><path d="M1198.16 580h12.1m12.1 0h12.1m12.12 0h12.1m12.1 0h12.12m12.1 0h12.1m12.1 0h12.12m12.1 0h12.1m12.1 0h12.12m12.1 0h12.1m12.1 0h12.12m12.1 0h12.1m12.1 0h12.12m12.1 0h12.1m12.12 0h12.1m12.1 0h12.1m12.12 0h12.1m12.1 0h12.1m12.12 0h12.1m12.1 0h6.06v6.25m0 12.5v12.5m0 12.5v12.5m0 12.5v12.5m0 12.5V680h-6.05m-12.1 0h-12.1m-12.12 0h-12.1m-12.1 0h-12.1m-12.12 0h-12.1m-12.1 0h-12.1m-12.1 0h-12.12m-12.1 0h-12.1m-12.1 0h-12.12m-12.1 0h-12.1m-12.1 0h-12.12m-12.1 0h-12.1m-12.1 0h-12.12m-12.1 0h-12.1m-12.12 0H1295m-12.1 0h-12.1m-12.12 0h-12.1m-12.1 0h-12.1m-12.12 0h-12.1m-12.1 0H1180v-6.25m0-12.5v-12.5m0-12.5v-12.5m0-12.5v-12.5m0-12.5V580h6.05" stroke="#1071e5" stroke-width="3" fill="none"/><use xlink:href="#a" transform="matrix(1,0,0,1,1180,600) translate(162.58463541666666 25.833333333333336)"/><path d="M1060 600h120v96h-120z" fill-opacity="0"/><path d="M1180 679.4c0 2.78-2.28 5.08-5.04 5.08h-52.44V691H1144c1.32 0 2.52 1.06 2.52 2.5 0 1.35-1.2 2.5-2.52 2.5h-48c-1.32 0-2.52-1.15-2.52-2.5 0-1.44 1.2-2.5 2.52-2.5h21.48v-6.52h-52.44c-2.76 0-5.04-2.3-5.04-5.1V605c0-2.77 2.28-4.98 5.04-4.98h109.92c2.76 0 5.04 2.2 5.04 5v74.4zm-114.96 0h109.92V605h-109.92v74.4z" fill="#282c33"/><use xlink:href="#b" transform="matrix(1,0,0,1,1030,705) translate(37.824435763888886 21.52777777777778)"/><use xlink:href="#c" transform="matrix(1,0,0,1,1030,705) translate(43.40711805555556 53.79340277777778)"/><path d="M1640 600h120v96h-120z" fill-opacity="0"/><path d="M1760 679.4c0 2.78-2.28 5.08-5.04 5.08h-52.44V691H1724c1.32 0 2.52 1.06 2.52 2.5 0 1.35-1.2 2.5-2.52 2.5h-48c-1.32 0-2.52-1.15-2.52-2.5 0-1.44 1.2-2.5 2.52-2.5h21.48v-6.52h-52.44c-2.76 0-5.04-2.3-5.04-5.1V605c0-2.77 2.28-4.98 5.04-4.98h109.92c2.76 0 5.04 2.2 5.04 5v74.4zm-114.96 0h109.92V605h-109.92v74.4z" fill="#282c33"/><use xlink:href="#d" transform="matrix(1,0,0,1,1610,705) translate(5.760633680555557 21.52777777777778)"/><use xlink:href="#c" transform="matrix(1,0,0,1,1610,705) translate(81.05360243055556 21.52777777777778)"/><path d="M1264.03 649.98h-61.3V646h61.3zm373.97 0h-82.03V646H1638z" stroke="#000" stroke-width=".05"/><path d="M1640 649.98h-2.05V646h2.05z"/><path stroke="#000" stroke-width=".05"/><path d="M1200.74 652.63l-14.27-4.63 14.27-4.63z"/><path d="M1202.7 655.35L1180.1 648l22.63-7.35zm-9.84-7.35l5.9 1.92v-3.84z" stroke="#000" stroke-width=".05"/><use xlink:href="#e" transform="matrix(1,0,0,1,1264.0283203125,635.900390625) translate(0.0049999999999954525 19.375)"/><use xlink:href="#f" transform="matrix(1,0,0,1,1264.0283203125,635.900390625) translate(83.989375 19.375)"/><use xlink:href="#g" transform="matrix(1,0,0,1,1264.0283203125,635.900390625) translate(137.026484375 19.375)"/><path d="M1072.93 635.55a6 6 0 0 1 6-6h82.14a6 6 0 0 1 6 6v24.9a6 6 0 0 1-6 6h-82.14a6 6 0 0 1-6-6z" fill="none"/><g><use xlink:href="#h" transform="matrix(1,0,0,1,1077.9268576388888,634.5509895833334) translate(0 21.58376736111111)"/></g><path d="M1652.93 635.55a6 6 0 0 1 6-6h81.96a6 6 0 0 1 6 6v24.9a6 6 0 0 1-6 6h-81.97a6 6 0 0 1-6-6z" fill="none"/><g><use xlink:href="#i" transform="matrix(1,0,0,1,1657.926857638889,634.5509895833334) translate(0 21.58376736111111)"/></g><defs><path fill="#008a0e" d="M135 0v-1490h997v253H440v360h640v249H440v375h694V0H135" id="j"/><path fill="#008a0e" d="M428-647V0H128v-1118h283l4 231c63-156 176-245 348-245 232 0 384 159 384 421V0H847v-659c0-139-76-222-202-222-128 0-217 86-217 234" id="k"/><path fill="#008a0e" d="M628 22C291 22 81-210 81-554c0-346 210-578 547-578 265 0 455 142 497 372l-279 52c-25-116-99-188-215-188-160 0-244 139-244 341 0 200 84 341 244 341 116 0 193-74 217-195l279 51C1085-123 896 22 628 22" id="l"/><path fill="#008a0e" d="M128 0v-1118h290v195h12c54-169 184-238 367-200v268c-27-8-86-15-130-15-138 0-239 95-239 234V0H128" id="m"/><path fill="#008a0e" d="M120 396l69-226c123 42 245 23 254-107l8-60L31-1118h319c87 288 199 559 259 872 72-308 185-583 277-872h315L726 132c-68 181-186 294-410 294-79 0-153-13-196-30" id="n"/><path fill="#008a0e" d="M128 418v-1536h295v188h14c41-89 129-202 319-202 248 0 453 193 453 575 0 372-197 576-455 576-183 0-275-108-317-198h-9v597H128zm534-640c156 0 240-139 240-336 0-196-83-334-240-334-154 0-241 131-241 334 0 202 88 336 241 336" id="o"/><path fill="#008a0e" d="M683-1118v229H474v562c0 71 29 104 102 104 23 0 73-7 95-13l43 225C647 9 580 16 520 16 296 16 174-96 174-301v-588H20v-229h154v-266h300v266h209" id="p"/><path fill="#008a0e" d="M633 22C291 22 81-200 81-553c0-345 210-579 537-579 292 0 525 185 525 567v84H378c7 183 109 277 260 277 105 0 184-46 216-132l272 51C1071-99 893 22 633 22zM380-669h474c-15-146-94-237-233-237-143 0-229 99-241 237" id="q"/><path fill="#008a0e" d="M537 19C279 19 81-185 81-557c0-382 206-575 454-575 190 0 278 113 318 202h10v-560h300V0H868v-179h-15C812-89 719 19 537 19zm92-241c153 0 240-134 240-336 0-203-86-334-240-334-158 0-240 138-240 334 0 197 84 336 240 336" id="r"/><g id="a"><use transform="matrix(0.013020833333333334,0,0,0.013020833333333334,0,0)" xlink:href="#j"/><use transform="matrix(0.013020833333333334,0,0,0.013020833333333334,16.197916666666668,0)" xlink:href="#k"/><use transform="matrix(0.013020833333333334,0,0,0.013020833333333334,32.79947916666667,0)" xlink:href="#l"/><use transform="matrix(0.013020833333333334,0,0,0.013020833333333334,48.48958333333334,0)" xlink:href="#m"/><use transform="matrix(0.013020833333333334,0,0,0.013020833333333334,59.765625,0)" xlink:href="#n"/><use transform="matrix(0.013020833333333334,0,0,0.013020833333333334,75.8203125,0)" xlink:href="#o"/><use transform="matrix(0.013020833333333334,0,0,0.013020833333333334,92.63020833333334,0)" xlink:href="#p"/><use transform="matrix(0.013020833333333334,0,0,0.013020833333333334,102.13541666666667,0)" xlink:href="#q"/><use transform="matrix(0.013020833333333334,0,0,0.013020833333333334,118.02083333333334,0)" xlink:href="#r"/></g><path d="M49 0l509-1490h400L1480 0h-339l-115-346H497L386 0H49zm524-585h374c-75-213-124-402-192-666-66 268-110 453-182 666" id="s"/><path d="M683-1118v229H474v562c0 71 29 104 102 104 23 0 73-7 95-13l43 225C647 9 580 16 520 16 296 16 174-96 174-301v-588H20v-229h154v-266h300v266h209" id="t"/><path d="M440 22C227 22 68-92 68-313c0-250 202-322 422-343 195-21 271-24 271-105 0-95-63-149-175-149-116 0-187 57-211 129l-275-46c57-194 237-305 487-305 240 0 474 108 474 379V0H777v-155h-10C713-51 605 22 440 22zm85-211c140 0 238-93 238-211v-121c-37 26-156 42-222 51-111 16-185 59-185 149 0 87 70 132 169 132" id="u"/><path d="M628 22C291 22 81-210 81-554c0-346 210-578 547-578 265 0 455 142 497 372l-279 52c-25-116-99-188-215-188-160 0-244 139-244 341 0 200 84 341 244 341 116 0 193-74 217-195l279 51C1085-123 896 22 628 22" id="v"/><path d="M128 0v-1490h300v802h17l366-430h347L740-633 1179 0H826L514-456l-86 97V0H128" id="w"/><path d="M128 0v-1118h300V0H128zm150-1264c-91 0-165-68-165-154 0-85 74-154 165-154 90 0 165 69 165 154 0 86-75 154-165 154" id="x"/><path d="M428-647V0H128v-1118h283l4 231c63-156 176-245 348-245 232 0 384 159 384 421V0H847v-659c0-139-76-222-202-222-128 0-217 86-217 234" id="y"/><path d="M625 442c-280 0-454-114-503-274l258-72c28 63 97 128 243 128 153 0 246-69 246-216v-206h-23C805-108 717-16 536-16 284-16 81-191 81-561c0-378 208-571 456-571 188 0 280 113 321 202h13v-188h295V-9c0 303-226 451-541 451zm5-686c153 0 240-119 240-319 0-198-86-329-240-329-158 0-241 137-241 329 0 195 85 319 241 319" id="z"/><g id="b"><use transform="matrix(0.010850694444444444,0,0,0.010850694444444444,0,0)" xlink:href="#s"/><use transform="matrix(0.010850694444444444,0,0,0.010850694444444444,15.983072916666664,0)" xlink:href="#t"/><use transform="matrix(0.010850694444444444,0,0,0.010850694444444444,23.33984375,0)" xlink:href="#t"/><use transform="matrix(0.010850694444444444,0,0,0.010850694444444444,31.586371527777775,0)" xlink:href="#u"/><use transform="matrix(0.010850694444444444,0,0,0.010850694444444444,44.48784722222222,0)" xlink:href="#v"/><use transform="matrix(0.010850694444444444,0,0,0.010850694444444444,57.56293402777778,0)" xlink:href="#w"/><use transform="matrix(0.010850694444444444,0,0,0.010850694444444444,70.45355902777777,0)" xlink:href="#x"/><use transform="matrix(0.010850694444444444,0,0,0.010850694444444444,76.47569444444444,0)" xlink:href="#y"/><use transform="matrix(0.010850694444444444,0,0,0.010850694444444444,90.31032986111111,0)" xlink:href="#z"/></g><path d="M128 0v-1118h278l12 217c60-163 185-234 319-234 143 0 236 81 288 251 63-172 205-251 359-251 205 0 357 138 357 381V0h-301v-697c0-126-76-187-177-187-114 0-184 79-184 196V0H789v-705c0-109-72-179-174-179-106 0-187 74-187 208V0H128" id="A"/><path d="M428-647V0H128v-1490h294v586c65-146 175-228 341-228 232 0 385 159 385 421V0H847v-659c0-139-76-222-202-222-128 0-217 86-217 234" id="B"/><path d="M633 22C291 22 81-200 81-553c0-345 210-579 537-579 292 0 525 185 525 567v84H378c7 183 109 277 260 277 105 0 184-46 216-132l272 51C1071-99 893 22 633 22zM380-669h474c-15-146-94-237-233-237-143 0-229 99-241 237" id="C"/><g id="c"><use transform="matrix(0.010850694444444444,0,0,0.010850694444444444,0,0)" xlink:href="#A"/><use transform="matrix(0.010850694444444444,0,0,0.010850694444444444,20.279947916666664,0)" xlink:href="#u"/><use transform="matrix(0.010850694444444444,0,0,0.010850694444444444,33.18142361111111,0)" xlink:href="#v"/><use transform="matrix(0.010850694444444444,0,0,0.010850694444444444,46.256510416666664,0)" xlink:href="#B"/><use transform="matrix(0.010850694444444444,0,0,0.010850694444444444,60.09114583333333,0)" xlink:href="#x"/><use transform="matrix(0.010850694444444444,0,0,0.010850694444444444,66.11328125,0)" xlink:href="#y"/><use transform="matrix(0.010850694444444444,0,0,0.010850694444444444,79.94791666666667,0)" xlink:href="#C"/></g><path d="M75-1237v-253h1217v253H837V0H531v-1237H75" id="D"/><path d="M128 0v-1118h290v195h12c54-169 184-238 367-200v268c-27-8-86-15-130-15-138 0-239 95-239 234V0H128" id="E"/><g id="d"><use transform="matrix(0.010850694444444444,0,0,0.010850694444444444,0,0)" xlink:href="#D"/><use transform="matrix(0.010850694444444444,0,0,0.010850694444444444,13.20529513888889,0)" xlink:href="#u"/><use transform="matrix(0.010850694444444444,0,0,0.010850694444444444,26.106770833333336,0)" xlink:href="#E"/><use transform="matrix(0.010850694444444444,0,0,0.010850694444444444,34.61371527777778,0)" xlink:href="#z"/><use transform="matrix(0.010850694444444444,0,0,0.010850694444444444,48.654513888888886,0)" xlink:href="#C"/><use transform="matrix(0.010850694444444444,0,0,0.010850694444444444,61.89236111111111,0)" xlink:href="#t"/></g><path d="M135 0v-1490h581c339 0 533 192 533 485 0 204-94 351-264 424L1302 0H964L680-532H440V0H135zm305-779h220c186 0 274-77 274-226 0-150-88-233-275-233H440v459" id="F"/><path d="M443 0L31-1118h319c90 293 199 572 268 885 66-313 175-593 264-885h315L784 0H443" id="G"/><path d="M572 22C302 22 117-98 78-306l279-48c29 105 101 156 224 156 114 0 185-48 185-115 0-118-228-130-337-155-215-49-322-150-322-317 0-215 187-347 470-347 265 0 424 116 466 298l-266 47c-24-76-87-130-196-130-98 0-174 46-174 113 0 56 38 95 144 117l201 40c216 44 320 143 320 302 0 220-207 367-500 367" id="H"/><g id="e"><use transform="matrix(0.009765625,0,0,0.009765625,0,0)" xlink:href="#F"/><use transform="matrix(0.009765625,0,0,0.009765625,12.890625,0)" xlink:href="#C"/><use transform="matrix(0.009765625,0,0,0.009765625,24.443359375,0)" xlink:href="#G"/><use transform="matrix(0.009765625,0,0,0.009765625,36.07421875,0)" xlink:href="#C"/><use transform="matrix(0.009765625,0,0,0.009765625,47.98828125,0)" xlink:href="#E"/><use transform="matrix(0.009765625,0,0,0.009765625,56.1328125,0)" xlink:href="#H"/><use transform="matrix(0.009765625,0,0,0.009765625,67.333984375,0)" xlink:href="#C"/></g><path d="M681 22C323 22 94-145 85-462h297c10 151 131 226 296 226 163 0 271-77 271-190 0-102-95-149-257-189l-164-41c-252-61-403-188-403-405 0-269 236-449 560-449 330 0 546 183 551 445H941c-11-119-106-188-259-188-156 0-244 72-244 172-3 156 226 185 373 221 250 61 445 186 445 436 0 271-213 446-575 446" id="I"/><path d="M428-1490V0H128v-1490h300" id="J"/><g id="f"><use transform="matrix(0.009765625,0,0,0.009765625,0,0)" xlink:href="#I"/><use transform="matrix(0.009765625,0,0,0.009765625,13.095703125,0)" xlink:href="#B"/><use transform="matrix(0.009765625,0,0,0.009765625,25.546875,0)" xlink:href="#C"/><use transform="matrix(0.009765625,0,0,0.009765625,37.4609375,0)" xlink:href="#J"/><use transform="matrix(0.009765625,0,0,0.009765625,42.880859375,0)" xlink:href="#J"/></g><path d="M786 20C389 20 94-260 94-744c0-487 299-766 692-766 339 0 597 194 641 529h-309c-28-162-156-258-326-258-233 0-388 179-388 495 0 323 157 493 387 493 170 0 298-97 328-259h309c-34 277-266 530-642 530" id="K"/><path d="M628 22C291 22 81-210 81-554c0-346 210-578 547-578 336 0 547 232 547 578 0 344-211 576-547 576zm0-236c160 0 242-146 242-341 0-197-82-341-242-341S387-753 387-555c0 195 81 341 241 341" id="L"/><path d="M513 14c-232 0-385-159-385-421v-711h300v659c0 139 76 222 202 222 127 0 217-86 217-234v-647h301V0H864l-4-232C797-74 683 14 513 14" id="M"/><g id="g"><use transform="matrix(0.009765625,0,0,0.009765625,0,0)" xlink:href="#K"/><use transform="matrix(0.009765625,0,0,0.009765625,14.794921875,0)" xlink:href="#L"/><use transform="matrix(0.009765625,0,0,0.009765625,27.060546875,0)" xlink:href="#A"/><use transform="matrix(0.009765625,0,0,0.009765625,45.3125,0)" xlink:href="#A"/><use transform="matrix(0.009765625,0,0,0.009765625,63.564453125,0)" xlink:href="#M"/><use transform="matrix(0.009765625,0,0,0.009765625,76.015625,0)" xlink:href="#y"/><use transform="matrix(0.009765625,0,0,0.009765625,88.466796875,0)" xlink:href="#x"/><use transform="matrix(0.009765625,0,0,0.009765625,93.88671875,0)" xlink:href="#v"/><use transform="matrix(0.009765625,0,0,0.009765625,105.849609375,0)" xlink:href="#u"/><use transform="matrix(0.009765625,0,0,0.009765625,117.4609375,0)" xlink:href="#t"/><use transform="matrix(0.009765625,0,0,0.009765625,124.78515625,0)" xlink:href="#x"/><use transform="matrix(0.009765625,0,0,0.009765625,130.205078125,0)" xlink:href="#L"/><use transform="matrix(0.009765625,0,0,0.009765625,142.470703125,0)" xlink:href="#y"/></g><path fill="#635dff" d="M180 0v-1490h190v1322h690V0H180" id="N"/><path fill="#635dff" d="M158 0v-1118h180V0H158zm91-1301c-68 0-125-53-125-119s57-119 125-119c69 0 126 53 126 119s-57 119-126 119" id="O"/><path fill="#635dff" d="M538 24C308 24 148-78 108-271l171-41c32 123 123 178 257 178 156 0 256-77 256-169 0-77-54-128-164-154l-186-44c-203-48-300-148-300-305 0-192 176-326 414-326 230 0 351 112 402 269l-163 42c-31-80-94-158-238-158-133 0-233 69-233 162 0 83 57 129 188 160l169 40c203 48 298 149 298 302 0 196-179 339-441 339" id="P"/><path fill="#635dff" d="M598-1118v154H368v674c0 100 37 144 132 144 23 0 62-6 92-12L629-6c-37 13-88 20-134 20-193 0-307-107-307-290v-688H20v-154h168v-266h180v266h230" id="Q"/><path fill="#635dff" d="M628 24c-324 0-524-230-524-574 0-343 198-582 503-582 237 0 487 146 487 559v75H286c9 234 145 362 343 362 132 0 231-58 273-172l174 48C1024-91 857 24 628 24zM287-650h624c-17-190-120-322-304-322-192 0-309 151-320 322" id="R"/><path fill="#635dff" d="M338-670V0H158v-1118h173l1 207c72-158 192-221 342-221 226 0 378 139 378 422V0H872v-695c0-172-96-275-252-275-161 0-282 109-282 300" id="S"/><path fill="#635dff" d="M158 0v-1118h174v172h12c41-113 157-188 290-188 26 0 70 2 91 3v181c-11-2-60-10-108-10-161 0-279 109-279 260V0H158" id="T"/><g id="h"><use transform="matrix(0.010850694444444444,0,0,0.010850694444444444,0,0)" xlink:href="#N"/><use transform="matrix(0.010850694444444444,0,0,0.010850694444444444,12.565104166666666,0)" xlink:href="#O"/><use transform="matrix(0.010850694444444444,0,0,0.010850694444444444,17.94704861111111,0)" xlink:href="#P"/><use transform="matrix(0.010850694444444444,0,0,0.010850694444444444,29.67664930555556,0)" xlink:href="#Q"/><use transform="matrix(0.010850694444444444,0,0,0.010850694444444444,36.72960069444444,0)" xlink:href="#R"/><use transform="matrix(0.010850694444444444,0,0,0.010850694444444444,49.68532986111111,0)" xlink:href="#S"/><use transform="matrix(0.010850694444444444,0,0,0.010850694444444444,62.814670138888886,0)" xlink:href="#R"/><use transform="matrix(0.010850694444444444,0,0,0.010850694444444444,75.77039930555556,0)" xlink:href="#T"/></g><path fill="#e81313" d="M180 0v-1490h510c348 0 508 209 508 474 0 266-160 477-507 477H370V0H180zm190-706h312c236 0 327-133 327-310 0-176-91-307-329-307H370v617" id="U"/><path fill="#e81313" d="M471 26C259 26 90-98 90-318c0-256 228-303 435-329 202-27 287-16 287-108 0-139-79-219-234-219-161 0-248 86-283 164l-173-57c86-203 278-265 451-265 150 0 419 46 419 395V0H815v-152h-12C765-73 660 26 471 26zm31-159c199 0 310-134 310-271v-155c-30 35-226 55-295 64-131 17-246 59-246 186 0 116 97 176 231 176" id="V"/><path fill="#e81313" d="M140 405l46-156c120 36 205 19 263-150l32-93L54-1118h197c107 313 237 620 324 950 87-331 219-637 326-950h196L606 167c-68 178-176 259-334 259-64 0-113-12-132-21" id="W"/><path fill="#e81313" d="M338-1490V0H158v-1490h180" id="X"/><path fill="#e81313" d="M613 24c-304 0-509-231-509-576 0-350 205-580 509-580 305 0 511 230 511 580 0 345-206 576-511 576zm0-161c226 0 329-195 329-415 0-222-103-419-329-419-223 0-326 196-326 419 0 220 103 415 326 415" id="Y"/><path fill="#e81313" d="M577 24c-279 0-473-224-473-580 0-354 195-576 474-576 218 0 287 134 324 193h14v-551h180V0H922v-173h-20C865-111 790 24 577 24zm27-161c203 0 314-172 314-421 0-247-108-413-314-413-212 0-317 181-317 413 0 235 108 421 317 421" id="Z"/><g id="i"><use transform="matrix(0.010850694444444444,0,0,0.010850694444444444,0,0)" xlink:href="#U"/><use transform="matrix(0.010850694444444444,0,0,0.010850694444444444,14.192708333333332,0)" xlink:href="#V"/><use transform="matrix(0.010850694444444444,0,0,0.010850694444444444,26.345486111111104,0)" xlink:href="#W"/><use transform="matrix(0.010850694444444444,0,0,0.010850694444444444,38.94314236111111,0)" xlink:href="#X"/><use transform="matrix(0.010850694444444444,0,0,0.010850694444444444,44.32508680555555,0)" xlink:href="#Y"/><use transform="matrix(0.010850694444444444,0,0,0.010850694444444444,57.86675347222221,0)" xlink:href="#V"/><use transform="matrix(0.010850694444444444,0,0,0.010850694444444444,70.34505208333333,0)" xlink:href="#Z"/></g></defs></g></svg>