<svg xmlns="http://www.w3.org/2000/svg" xmlns:xlink="http://www.w3.org/1999/xlink" xmlns:lucid="lucid" width="923" height="1243"><g transform="translate(-738.5 -358.5)" lucid:page-tab-id="0_0"><path d="M500 0h1500v2000H500z" fill="#fff"/><path d="M740 360h320v1240H740z" fill="#fff0f0"/><path d="M758.46 360h12.3m12.32 0h12.3m12.3 0H820m12.3 0h12.32m12.3 0h12.3m12.32 0h12.3m12.3 0h12.32m12.3 0h12.32m12.3 0h12.3m12.32 0h12.3m12.32 0h12.3m12.3 0h12.32m12.3 0h6.16v5.96m0 11.93v11.9m0 11.93v11.92m0 11.93v11.92m0 11.92v11.93m0 11.92v11.92m0 11.92v11.92m0 11.92v11.92m0 11.93v11.93m0 11.92v11.93m0 11.92v11.92m0 11.93v11.92m0 11.92v11.9m0 11.94v11.92m0 11.92v11.93m0 11.93v11.92m0 11.93v11.92m0 11.92v11.93m0 11.92v11.92m0 11.9v11.94m0 11.92v11.92m0 11.93v11.93m0 11.92v11.93m0 11.92v11.92m0 11.93v11.92m0 11.92v11.9m0 11.94v11.92m0 11.92v11.93m0 11.93v11.92m0 11.93v11.92m0 11.92v11.93m0 11.92v11.92m0 11.9v11.94m0 11.92v11.92m0 11.93v11.93m0 11.92v11.93m0 11.92v11.92m0 11.93v11.92m0 11.92v11.9m0 11.94v11.92m0 11.92v11.93m0 11.93v11.92m0 11.93v11.92m0 11.92v11.93m0 11.92v11.92m0 11.9v11.94m0 11.92v11.92m0 11.93v11.93m0 11.92v11.93m0 11.92v11.92m0 11.93v11.92m0 11.92v11.9m0 11.94v5.96h-6.15m-12.3 0h-12.32m-12.3 0h-12.3m-12.32 0H980m-12.3 0h-12.32m-12.3 0h-12.3m-12.32 0h-12.3m-12.3 0h-12.32m-12.3 0H856.9m-12.3 0h-12.3m-12.32 0h-12.3m-12.32 0h-12.3m-12.3 0h-12.32m-12.3 0H740v-5.96m0-11.92v-11.93m0-11.93v-11.92m0-11.93v-11.92m0-11.92v-11.93m0-11.92v-11.92m0-11.9v-11.94m0-11.92v-11.92m0-11.93v-11.93m0-11.92v-11.93m0-11.92v-11.92m0-11.93v-11.92m0-11.92v-11.9m0-11.94v-11.92m0-11.92v-11.93m0-11.93v-11.92m0-11.93v-11.92m0-11.92v-11.93m0-11.92v-11.92m0-11.9v-11.94m0-11.92v-11.92m0-11.93v-11.93m0-11.92v-11.93m0-11.92v-11.92m0-11.93v-11.92m0-11.92v-11.9m0-11.94v-11.92m0-11.92V950.2m0-11.93v-11.92m0-11.93V902.5m0-11.92v-11.93m0-11.92V854.8m0-11.9v-11.94m0-11.92v-11.92m0-11.93v-11.93m0-11.92v-11.93m0-11.92v-11.92m0-11.93v-11.92m0-11.92v-11.9m0-11.94v-11.92m0-11.92V640.2m0-11.93v-11.92m0-11.93V592.5m0-11.92v-11.93m0-11.92V544.8m0-11.9v-11.94m0-11.92V497.1m0-11.9v-11.93m0-11.92v-11.93m0-11.92v-11.92m0-11.93v-11.92m0-11.92V377.9m0-11.92V360h6.15" stroke="#e81313" stroke-width="3" fill="none"/><use xlink:href="#a" transform="matrix(1,0,0,1,740,380) translate(76.982421875 38.75)"/><path d="M1340 360h320v1240h-320z" fill="#e3fae3"/><path d="M1358.46 360h12.3m12.32 0h12.3m12.3 0H1420m12.3 0h12.32m12.3 0h12.3m12.32 0h12.3m12.3 0h12.32m12.3 0h12.32m12.3 0h12.3m12.32 0h12.3m12.32 0h12.3m12.3 0h12.32m12.3 0h6.16v5.96m0 11.93v11.9m0 11.93v11.92m0 11.93v11.92m0 11.92v11.93m0 11.92v11.92m0 11.92v11.92m0 11.92v11.92m0 11.93v11.93m0 11.92v11.93m0 11.92v11.92m0 11.93v11.92m0 11.92v11.9m0 11.94v11.92m0 11.92v11.93m0 11.93v11.92m0 11.93v11.92m0 11.92v11.93m0 11.92v11.92m0 11.9v11.94m0 11.92v11.92m0 11.93v11.93m0 11.92v11.93m0 11.92v11.92m0 11.93v11.92m0 11.92v11.9m0 11.94v11.92m0 11.92v11.93m0 11.93v11.92m0 11.93v11.92m0 11.92v11.93m0 11.92v11.92m0 11.9v11.94m0 11.92v11.92m0 11.93v11.93m0 11.92v11.93m0 11.92v11.92m0 11.93v11.92m0 11.92v11.9m0 11.94v11.92m0 11.92v11.93m0 11.93v11.92m0 11.93v11.92m0 11.92v11.93m0 11.92v11.92m0 11.9v11.94m0 11.92v11.92m0 11.93v11.93m0 11.92v11.93m0 11.92v11.92m0 11.93v11.92m0 11.92v11.9m0 11.94v5.96h-6.15m-12.3 0h-12.32m-12.3 0h-12.32m-12.3 0H1580m-12.3 0h-12.32m-12.3 0h-12.3m-12.32 0h-12.3m-12.3 0h-12.32m-12.3 0h-12.32m-12.3 0h-12.3m-12.32 0h-12.3m-12.32 0h-12.3m-12.3 0h-12.32m-12.3 0H1340v-5.96m0-11.92v-11.93m0-11.93v-11.92m0-11.93v-11.92m0-11.92v-11.93m0-11.92v-11.92m0-11.9v-11.94m0-11.92v-11.92m0-11.93v-11.93m0-11.92v-11.93m0-11.92v-11.92m0-11.93v-11.92m0-11.92v-11.9m0-11.94v-11.92m0-11.92v-11.93m0-11.93v-11.92m0-11.93v-11.92m0-11.92v-11.93m0-11.92v-11.92m0-11.9v-11.94m0-11.92v-11.92m0-11.93v-11.93m0-11.92v-11.93m0-11.92v-11.92m0-11.93v-11.92m0-11.92v-11.9m0-11.94v-11.92m0-11.92V950.2m0-11.93v-11.92m0-11.93V902.5m0-11.92v-11.93m0-11.92V854.8m0-11.9v-11.94m0-11.92v-11.92m0-11.93v-11.93m0-11.92v-11.93m0-11.92v-11.92m0-11.93v-11.92m0-11.92v-11.9m0-11.94v-11.92m0-11.92V640.2m0-11.93v-11.92m0-11.93V592.5m0-11.92v-11.93m0-11.92V544.8m0-11.9v-11.94m0-11.92V497.1m0-11.9v-11.93m0-11.92v-11.93m0-11.92v-11.92m0-11.93v-11.92m0-11.92V377.9m0-11.92V360h6.15" stroke="#008a0e" stroke-width="3" fill="none"/><use xlink:href="#b" transform="matrix(1,0,0,1,1340,380) translate(96.97265625 38.75)"/><path d="M820 686a6 6 0 0 1 6-6h148a6 6 0 0 1 6 6v108a6 6 0 0 1-6 6H826a6 6 0 0 1-6-6z" stroke="#000" stroke-width="2" fill="#fff"/><use xlink:href="#c" transform="matrix(1,0,0,1,832,692) translate(28.020616319444443 23.77777777777778)"/><use xlink:href="#d" transform="matrix(1,0,0,1,832,692) translate(95.50108506944444 23.77777777777778)"/><use xlink:href="#e" transform="matrix(1,0,0,1,832,692) translate(42.441189236111114 56.04340277777778)"/><use xlink:href="#f" transform="matrix(1,0,0,1,832,692) translate(25.931857638888886 88.30902777777777)"/><path d="M1160.76 744.24a6 6 0 0 0 0-8.48l-51.52-51.52A2.48 2.48 0 0 1 1111 680h118a14.48 14.48 0 0 1 10.24 4.24l51.52 51.52a6 6 0 0 1 0 8.48l-51.52 51.52A14.48 14.48 0 0 1 1229 800h-118a2.48 2.48 0 0 1-1.76-4.24z" stroke="#000" stroke-width="2" fill="#fff"/><use xlink:href="#g" transform="matrix(1,0,0,1,1105,680) translate(66.81857638888889 40.65451388888889)"/><use xlink:href="#h" transform="matrix(1,0,0,1,1105,680) translate(68.18142361111111 66.46701388888889)"/><use xlink:href="#i" transform="matrix(1,0,0,1,1105,680) translate(63.22048611111111 92.27951388888889)"/><path d="M1160.76 1004.24a6 6 0 0 0 0-8.48l-51.52-51.52A2.48 2.48 0 0 1 1111 940h118a14.48 14.48 0 0 1 10.24 4.24l51.52 51.52a6 6 0 0 1 0 8.48l-51.52 51.52A14.48 14.48 0 0 1 1229 1060h-118a2.48 2.48 0 0 1-1.76-4.24z" stroke="#000" stroke-width="2" fill="#fff"/><use xlink:href="#j" transform="matrix(1,0,0,1,1105,940) translate(64.93923611111111 40.65451388888889)"/><use xlink:href="#k" transform="matrix(1,0,0,1,1105,940) translate(63.56770833333333 66.46701388888889)"/><use xlink:href="#l" transform="matrix(1,0,0,1,1105,940) translate(39.63107638888888 92.27951388888889)"/><use xlink:href="#m" transform="matrix(1,0,0,1,1105,940) translate(83.50260416666666 92.27951388888889)"/><path d="M1239.24 1264.24a6 6 0 0 1 0-8.48l51.52-51.52a2.48 2.48 0 0 0-1.76-4.24h-118a14.48 14.48 0 0 0-10.24 4.24l-51.52 51.52a6 6 0 0 0 0 8.48l51.52 51.52A14.48 14.48 0 0 0 1171 1320h118a2.48 2.48 0 0 0 1.76-4.24z" stroke="#000" stroke-width="2" fill="#fff"/><use xlink:href="#n" transform="matrix(1,0,0,1,1105,1200) translate(61.17621527777777 40.65451388888889)"/><use xlink:href="#o" transform="matrix(1,0,0,1,1105,1200) translate(48.18576388888888 66.46701388888889)"/><use xlink:href="#p" transform="matrix(1,0,0,1,1105,1200) translate(63.13802083333333 92.27951388888889)"/><path d="M1160.76 1524.24a6 6 0 0 0 0-8.48l-51.52-51.52a2.48 2.48 0 0 1 1.76-4.24h118a14.48 14.48 0 0 1 10.24 4.24l51.52 51.52a6 6 0 0 1 0 8.48l-51.52 51.52A14.48 14.48 0 0 1 1229 1580h-118a2.48 2.48 0 0 1-1.76-4.24z" stroke="#000" stroke-width="2" fill="#fff"/><use xlink:href="#q" transform="matrix(1,0,0,1,1105,1460) translate(51.91840277777777 40.65451388888889)"/><use xlink:href="#r" transform="matrix(1,0,0,1,1105,1460) translate(54.20572916666666 66.46701388888889)"/><use xlink:href="#s" transform="matrix(1,0,0,1,1105,1460) translate(57.526041666666664 92.27951388888889)"/><use xlink:href="#t" transform="matrix(1,0,0,1,1105,1460) translate(73.97569444444444 92.27951388888889)"/><path d="M820 1326a6 6 0 0 1 6-6h148a6 6 0 0 1 6 6v108a6 6 0 0 1-6 6H826a6 6 0 0 1-6-6z" stroke="#000" stroke-width="2" fill="#fff"/><use xlink:href="#u" transform="matrix(1,0,0,1,832,1332) translate(0.8396267361111143 23.77777777777778)"/><use xlink:href="#v" transform="matrix(1,0,0,1,832,1332) translate(58.207248263888886 23.77777777777778)"/><use xlink:href="#w" transform="matrix(1,0,0,1,832,1332) translate(9.482204861111121 56.04340277777778)"/><use xlink:href="#x" transform="matrix(1,0,0,1,832,1332) translate(18.9765625 88.30902777777777)"/><path d="M840 440h120v96H840z" fill-opacity="0"/><path d="M960 519.4c0 2.78-2.28 5.08-5.04 5.08h-52.44V531H924c1.32 0 2.52 1.06 2.52 2.5 0 1.35-1.2 2.5-2.52 2.5h-48c-1.32 0-2.52-1.15-2.52-2.5 0-1.44 1.2-2.5 2.52-2.5h21.48v-6.52h-52.44c-2.76 0-5.04-2.3-5.04-5.1V445c0-2.77 2.28-4.98 5.04-4.98h109.92c2.76 0 5.04 2.2 5.04 5v74.4zm-114.96 0h109.92V445H845.04v74.4z" fill="#282c33"/><use xlink:href="#y" transform="matrix(1,0,0,1,810,545) translate(37.824435763888886 21.52777777777778)"/><use xlink:href="#z" transform="matrix(1,0,0,1,810,545) translate(43.195529513888886 53.79340277777778)"/><path d="M1440 440h120v96h-120z" fill-opacity="0"/><path d="M1560 519.4c0 2.78-2.28 5.08-5.04 5.08h-52.44V531H1524c1.32 0 2.52 1.06 2.52 2.5 0 1.35-1.2 2.5-2.52 2.5h-48c-1.32 0-2.52-1.15-2.52-2.5 0-1.44 1.2-2.5 2.52-2.5h21.48v-6.52h-52.44c-2.76 0-5.04-2.3-5.04-5.1V445c0-2.77 2.28-4.98 5.04-4.98h109.92c2.76 0 5.04 2.2 5.04 5v74.4zm-114.96 0h109.92V445h-109.92v74.4z" fill="#282c33"/><use xlink:href="#A" transform="matrix(1,0,0,1,1410,545) translate(5.549045138888886 21.52777777777778)"/><use xlink:href="#z" transform="matrix(1,0,0,1,1410,545) translate(80.84201388888889 21.52777777777778)"/><path d="M1420 1066a6 6 0 0 1 6-6h148a6 6 0 0 1 6 6v108a6 6 0 0 1-6 6h-148a6 6 0 0 1-6-6z" stroke="#000" stroke-width="2" fill="#fff"/><use xlink:href="#B" transform="matrix(1,0,0,1,1432,1072) translate(26.02408854166667 39.90277777777778)"/><use xlink:href="#C" transform="matrix(1,0,0,1,1432,1072) translate(16.5568576388889 72.16840277777777)"/><path d="M901.98 677H898v-75.73H902zm0-130H898v-9H902z" stroke="#000" stroke-width=".05"/><path d="M901.98 538.05H898V536H902z"/><path stroke="#000" stroke-width=".05"/><path d="M901.98 679H898v-2.05H902z"/><path stroke="#000" stroke-width=".05"/><path d="M983 740h159.26" stroke="#000" stroke-width="4" fill="none"/><path d="M983.05 741.98H981V738h2.05z" stroke="#000" stroke-width=".05"/><path d="M1158.53 740l-14.27 4.63v-9.26z" stroke="#000" stroke-width="4"/><path d="M1501.97 1057h-3.94V573h3.94zm0-510h-3.94v-9h3.94z" stroke="#000" stroke-width=".05"/><path d="M1501.97 538.05h-3.94V536h3.94z"/><path stroke="#000" stroke-width=".05"/><path d="M1501.97 1059h-3.94v-2.05h3.94z"/><path stroke="#000" stroke-width=".05"/><path d="M1295.52 740h181.74" stroke="#000" stroke-width="4" fill="none"/><path d="M1295.57 741.98h-2.35l.2-.88.1-1.1-.1-1.1-.2-.88h2.35z" stroke="#000" stroke-width=".05"/><path d="M1493.53 740l-14.27 4.63v-9.26z" stroke="#000" stroke-width="4"/><path d="M1295.52 1000h181.74" stroke="#000" stroke-width="4" fill="none"/><path d="M1295.57 1001.98h-2.35l.2-.88.1-1.1-.1-1.1-.2-.88h2.35z" stroke="#000" stroke-width=".05"/><path d="M1493.53 1000l-14.27 4.63v-9.26z" stroke="#000" stroke-width="4"/><path d="M900 803v514" stroke="#000" stroke-width="4" fill="none"/><path d="M901.98 803.05H898V801H902zM901.98 1319H898v-2.05H902z" stroke="#000" stroke-width=".05"/><path d="M1500 1183v71a6 6 0 0 1-6 6h-211.26" stroke="#000" stroke-width="4" fill="none"/><path d="M1501.97 1183.05h-3.94V1181h3.94z" stroke="#000" stroke-width=".05"/><path d="M1266.47 1260l14.27-4.63v9.27z" stroke="#000" stroke-width="4"/><path d="M1104.48 1260H922.74" stroke="#000" stroke-width="4" fill="none"/><path d="M1106.57 1258.9l-.1 1.1.1 1.1.2.88h-2.34v-3.95h2.35z" stroke="#000" stroke-width=".05"/><path d="M906.47 1260l14.27-4.63v9.27z" stroke="#000" stroke-width="4"/><path d="M900 1443v74.33a6 6 0 0 0 6 6h231.48" stroke="#000" stroke-width="4" fill="none"/><path d="M901.98 1443.05H898V1441H902z" stroke="#000" stroke-width=".05"/><path d="M1153.75 1523.33l-14.27 4.64v-9.27z" stroke="#000" stroke-width="4"/><path d="M1138.77 1000H902" stroke="#000" stroke-width="4" fill="none"/><path d="M1155.04 1000l-14.27 4.63v-9.26z" stroke="#000" stroke-width="4"/><path d="M902.05 1000H900M1295.52 1520h181.74" stroke="#000" stroke-width="4" fill="none"/><path d="M1295.57 1521.97h-2.35l.2-.87.1-1.1-.1-1.1-.2-.88h2.35z" stroke="#000" stroke-width=".05"/><path d="M1493.53 1520l-14.27 4.63v-9.27z" stroke="#000" stroke-width="4"/><defs><path d="M49 0l509-1490h400L1480 0h-339l-115-346H497L386 0H49zm524-585h374c-75-213-124-402-192-666-66 268-110 453-182 666" id="D"/><path d="M683-1118v229H474v562c0 71 29 104 102 104 23 0 73-7 95-13l43 225C647 9 580 16 520 16 296 16 174-96 174-301v-588H20v-229h154v-266h300v266h209" id="E"/><path d="M440 22C227 22 68-92 68-313c0-250 202-322 422-343 195-21 271-24 271-105 0-95-63-149-175-149-116 0-187 57-211 129l-275-46c57-194 237-305 487-305 240 0 474 108 474 379V0H777v-155h-10C713-51 605 22 440 22zm85-211c140 0 238-93 238-211v-121c-37 26-156 42-222 51-111 16-185 59-185 149 0 87 70 132 169 132" id="F"/><path d="M628 22C291 22 81-210 81-554c0-346 210-578 547-578 265 0 455 142 497 372l-279 52c-25-116-99-188-215-188-160 0-244 139-244 341 0 200 84 341 244 341 116 0 193-74 217-195l279 51C1085-123 896 22 628 22" id="G"/><path d="M128 0v-1490h300v802h17l366-430h347L740-633 1179 0H826L514-456l-86 97V0H128" id="H"/><path d="M633 22C291 22 81-200 81-553c0-345 210-579 537-579 292 0 525 185 525 567v84H378c7 183 109 277 260 277 105 0 184-46 216-132l272 51C1071-99 893 22 633 22zM380-669h474c-15-146-94-237-233-237-143 0-229 99-241 237" id="I"/><path d="M128 0v-1118h290v195h12c54-169 184-238 367-200v268c-27-8-86-15-130-15-138 0-239 95-239 234V0H128" id="J"/><g id="a"><use transform="matrix(0.01953125,0,0,0.01953125,0,0)" xlink:href="#D"/><use transform="matrix(0.01953125,0,0,0.01953125,28.76953125,0)" xlink:href="#E"/><use transform="matrix(0.01953125,0,0,0.01953125,42.01171875,0)" xlink:href="#E"/><use transform="matrix(0.01953125,0,0,0.01953125,56.85546875,0)" xlink:href="#F"/><use transform="matrix(0.01953125,0,0,0.01953125,80.078125,0)" xlink:href="#G"/><use transform="matrix(0.01953125,0,0,0.01953125,103.61328125,0)" xlink:href="#H"/><use transform="matrix(0.01953125,0,0,0.01953125,125.91796875,0)" xlink:href="#I"/><use transform="matrix(0.01953125,0,0,0.01953125,149.74609375,0)" xlink:href="#J"/></g><path d="M75-1237v-253h1217v253H837V0H531v-1237H75" id="K"/><path d="M625 442c-280 0-454-114-503-274l258-72c28 63 97 128 243 128 153 0 246-69 246-216v-206h-23C805-108 717-16 536-16 284-16 81-191 81-561c0-378 208-571 456-571 188 0 280 113 321 202h13v-188h295V-9c0 303-226 451-541 451zm5-686c153 0 240-119 240-319 0-198-86-329-240-329-158 0-241 137-241 329 0 195 85 319 241 319" id="L"/><g id="b"><use transform="matrix(0.01953125,0,0,0.01953125,0,0)" xlink:href="#K"/><use transform="matrix(0.01953125,0,0,0.01953125,23.76953125,0)" xlink:href="#F"/><use transform="matrix(0.01953125,0,0,0.01953125,46.9921875,0)" xlink:href="#J"/><use transform="matrix(0.01953125,0,0,0.01953125,62.3046875,0)" xlink:href="#L"/><use transform="matrix(0.01953125,0,0,0.01953125,87.578125,0)" xlink:href="#I"/><use transform="matrix(0.01953125,0,0,0.01953125,111.40625,0)" xlink:href="#E"/></g><path d="M657 26c-323 0-524-166-541-416h195c15 169 171 246 346 246 202 0 356-106 356-265 5-203-294-238-475-293-239-73-380-191-380-389 0-252 224-419 512-419 294 0 499 171 508 396H992c-17-145-151-228-328-228-193 0-321 102-321 242 0 156 175 211 284 241l149 41c160 44 422 134 422 412 0 244-197 432-541 432" id="M"/><path d="M628 24c-324 0-524-230-524-574 0-343 198-582 503-582 237 0 487 146 487 559v75H286c9 234 145 362 343 362 132 0 231-58 273-172l174 48C1024-91 857 24 628 24zM287-650h624c-17-190-120-322-304-322-192 0-309 151-320 322" id="N"/><path d="M598-1118v154H368v674c0 100 37 144 132 144 23 0 62-6 92-12L629-6c-37 13-88 20-134 20-193 0-307-107-307-290v-688H20v-154h168v-266h180v266h230" id="O"/><path d="M537 14c-226 0-379-139-379-422v-710h180v695c0 172 97 275 253 275 160 0 281-109 281-300v-670h181V0H879v-209C806-46 684 14 537 14" id="P"/><path d="M158 418v-1536h174v179h20c37-59 106-193 324-193 279 0 474 222 474 576 0 356-194 580-473 580-213 0-288-135-325-197h-14v591H158zm492-555c209 0 317-186 317-421 0-232-105-413-317-413-206 0-314 166-314 413 0 249 111 421 314 421" id="Q"/><g id="c"><use transform="matrix(0.010850694444444444,0,0,0.010850694444444444,0,0)" xlink:href="#M"/><use transform="matrix(0.010850694444444444,0,0,0.010850694444444444,14.2578125,0)" xlink:href="#N"/><use transform="matrix(0.010850694444444444,0,0,0.010850694444444444,27.213541666666664,0)" xlink:href="#O"/><use transform="matrix(0.010850694444444444,0,0,0.010850694444444444,34.48350694444444,0)" xlink:href="#P"/><use transform="matrix(0.010850694444444444,0,0,0.010850694444444444,47.623697916666664,0)" xlink:href="#Q"/></g><path d="M471 26C259 26 90-98 90-318c0-256 228-303 435-329 202-27 287-16 287-108 0-139-79-219-234-219-161 0-248 86-283 164l-173-57c86-203 278-265 451-265 150 0 419 46 419 395V0H815v-152h-12C765-73 660 26 471 26zm31-159c199 0 310-134 310-271v-155c-30 35-226 55-295 64-131 17-246 59-246 186 0 116 97 176 231 176" id="R"/><use transform="matrix(0.010850694444444444,0,0,0.010850694444444444,0,0)" xlink:href="#R" id="d"/><path d="M338-670V0H158v-1490h180v566c73-149 190-208 336-208 226 0 379 139 379 422V0H872v-695c0-172-96-275-252-275-161 0-282 109-282 300" id="S"/><path d="M338-1490V0H158v-1490h180" id="T"/><g id="e"><use transform="matrix(0.010850694444444444,0,0,0.010850694444444444,0,0)" xlink:href="#M"/><use transform="matrix(0.010850694444444444,0,0,0.010850694444444444,14.2578125,0)" xlink:href="#S"/><use transform="matrix(0.010850694444444444,0,0,0.010850694444444444,27.39800347222222,0)" xlink:href="#N"/><use transform="matrix(0.010850694444444444,0,0,0.010850694444444444,40.353732638888886,0)" xlink:href="#T"/><use transform="matrix(0.010850694444444444,0,0,0.010850694444444444,45.73567708333333,0)" xlink:href="#T"/></g><path d="M180 0v-1490h190v1322h690V0H180" id="U"/><path d="M158 0v-1118h180V0H158zm91-1301c-68 0-125-53-125-119s57-119 125-119c69 0 126 53 126 119s-57 119-126 119" id="V"/><path d="M538 24C308 24 148-78 108-271l171-41c32 123 123 178 257 178 156 0 256-77 256-169 0-77-54-128-164-154l-186-44c-203-48-300-148-300-305 0-192 176-326 414-326 230 0 351 112 402 269l-163 42c-31-80-94-158-238-158-133 0-233 69-233 162 0 83 57 129 188 160l169 40c203 48 298 149 298 302 0 196-179 339-441 339" id="W"/><path d="M338-670V0H158v-1118h173l1 207c72-158 192-221 342-221 226 0 378 139 378 422V0H872v-695c0-172-96-275-252-275-161 0-282 109-282 300" id="X"/><path d="M158 0v-1118h174v172h12c41-113 157-188 290-188 26 0 70 2 91 3v181c-11-2-60-10-108-10-161 0-279 109-279 260V0H158" id="Y"/><g id="f"><use transform="matrix(0.010850694444444444,0,0,0.010850694444444444,0,0)" xlink:href="#U"/><use transform="matrix(0.010850694444444444,0,0,0.010850694444444444,12.565104166666666,0)" xlink:href="#V"/><use transform="matrix(0.010850694444444444,0,0,0.010850694444444444,17.94704861111111,0)" xlink:href="#W"/><use transform="matrix(0.010850694444444444,0,0,0.010850694444444444,29.67664930555556,0)" xlink:href="#O"/><use transform="matrix(0.010850694444444444,0,0,0.010850694444444444,36.72960069444444,0)" xlink:href="#N"/><use transform="matrix(0.010850694444444444,0,0,0.010850694444444444,49.68532986111111,0)" xlink:href="#X"/><use transform="matrix(0.010850694444444444,0,0,0.010850694444444444,62.814670138888886,0)" xlink:href="#N"/><use transform="matrix(0.010850694444444444,0,0,0.010850694444444444,75.77039930555556,0)" xlink:href="#Y"/></g><path d="M180 0v-1490h908v168H370v486h669v168H370v500h727V0H180" id="Z"/><path d="M65 0l393-574-370-544h210c88 136 192 297 267 435 67-142 176-302 264-435h206L661-564 1053 0H844c-94-144-206-310-287-458C484-308 366-142 273 0H65" id="aa"/><path d="M613 24c-304 0-509-231-509-576 0-350 205-580 509-580 305 0 511 230 511 580 0 345-206 576-511 576zm0-161c226 0 329-195 329-415 0-222-103-419-329-419-223 0-326 196-326 419 0 220 103 415 326 415" id="ab"/><g id="g"><use transform="matrix(0.008680555555555556,0,0,0.008680555555555556,0,0)" xlink:href="#Z"/><use transform="matrix(0.008680555555555556,0,0,0.008680555555555556,10.68576388888889,0)" xlink:href="#aa"/><use transform="matrix(0.008680555555555556,0,0,0.008680555555555556,20.390625,0)" xlink:href="#Q"/><use transform="matrix(0.008680555555555556,0,0,0.008680555555555556,31.276041666666668,0)" xlink:href="#T"/><use transform="matrix(0.008680555555555556,0,0,0.008680555555555556,35.58159722222222,0)" xlink:href="#ab"/><use transform="matrix(0.008680555555555556,0,0,0.008680555555555556,46.24131944444445,0)" xlink:href="#V"/><use transform="matrix(0.008680555555555556,0,0,0.008680555555555556,50.546875,0)" xlink:href="#O"/></g><path d="M98-1322v-168h1126v168H757V0H567v-1322H98" id="ac"/><path d="M611 442c-248 0-391-105-460-228l146-94c47 65 117 165 314 165 178 0 307-82 307-266v-224h-17C863-141 792-18 576-18c-268 0-472-195-472-546 0-346 197-568 476-568 216 0 288 133 326 193h17v-179h175V29c0 289-215 413-487 413zm-5-620c203 0 314-146 314-390 0-237-108-403-314-403-213 0-319 180-319 403 0 230 109 390 319 390" id="ad"/><g id="h"><use transform="matrix(0.008680555555555556,0,0,0.008680555555555556,0,0)" xlink:href="#ac"/><use transform="matrix(0.008680555555555556,0,0,0.008680555555555556,10.17361111111111,0)" xlink:href="#R"/><use transform="matrix(0.008680555555555556,0,0,0.008680555555555556,20.15625,0)" xlink:href="#Y"/><use transform="matrix(0.008680555555555556,0,0,0.008680555555555556,26.553819444444443,0)" xlink:href="#ad"/><use transform="matrix(0.008680555555555556,0,0,0.008680555555555556,37.45659722222222,0)" xlink:href="#N"/><use transform="matrix(0.008680555555555556,0,0,0.008680555555555556,47.82118055555556,0)" xlink:href="#O"/></g><path d="M481 0L54-1118h197c107 314 236 620 325 951 87-331 217-637 324-951h197L670 0H481" id="ae"/><path d="M613 24c-304 0-509-231-509-576 0-350 205-580 509-580 216 0 392 114 453 309l-173 49c-33-115-133-197-280-197-223 0-326 196-326 419 0 220 103 415 326 415 150 0 252-85 285-206l172 49C1010-95 832 24 613 24" id="af"/><g id="i"><use transform="matrix(0.008680555555555556,0,0,0.008680555555555556,0,0)" xlink:href="#M"/><use transform="matrix(0.008680555555555556,0,0,0.008680555555555556,11.40625,0)" xlink:href="#N"/><use transform="matrix(0.008680555555555556,0,0,0.008680555555555556,21.770833333333336,0)" xlink:href="#Y"/><use transform="matrix(0.008680555555555556,0,0,0.008680555555555556,28.74131944444445,0)" xlink:href="#ae"/><use transform="matrix(0.008680555555555556,0,0,0.008680555555555556,38.73263888888889,0)" xlink:href="#V"/><use transform="matrix(0.008680555555555556,0,0,0.008680555555555556,43.03819444444444,0)" xlink:href="#af"/><use transform="matrix(0.008680555555555556,0,0,0.008680555555555556,53.19444444444445,0)" xlink:href="#N"/></g><path d="M763 24c-353 0-583-224-583-531v-983h190v968c0 214 149 370 393 370 243 0 391-156 391-370v-968h190v983c0 307-230 531-581 531" id="ag"/><path d="M577 24c-279 0-473-224-473-580 0-354 195-576 474-576 218 0 287 134 324 193h14v-551h180V0H922v-173h-20C865-111 790 24 577 24zm27-161c203 0 314-172 314-421 0-247-108-413-314-413-212 0-317 181-317 413 0 235 108 421 317 421" id="ah"/><g id="j"><use transform="matrix(0.008680555555555556,0,0,0.008680555555555556,0,0)" xlink:href="#ag"/><use transform="matrix(0.008680555555555556,0,0,0.008680555555555556,13.229166666666668,0)" xlink:href="#Q"/><use transform="matrix(0.008680555555555556,0,0,0.008680555555555556,24.114583333333336,0)" xlink:href="#T"/><use transform="matrix(0.008680555555555556,0,0,0.008680555555555556,28.420138888888893,0)" xlink:href="#ab"/><use transform="matrix(0.008680555555555556,0,0,0.008680555555555556,39.25347222222223,0)" xlink:href="#R"/><use transform="matrix(0.008680555555555556,0,0,0.008680555555555556,49.236111111111114,0)" xlink:href="#ah"/></g><g id="k"><use transform="matrix(0.008680555555555556,0,0,0.008680555555555556,0,0)" xlink:href="#Y"/><use transform="matrix(0.008680555555555556,0,0,0.008680555555555556,6.397569444444445,0)" xlink:href="#N"/><use transform="matrix(0.008680555555555556,0,0,0.008680555555555556,16.414930555555557,0)" xlink:href="#ae"/><use transform="matrix(0.008680555555555556,0,0,0.008680555555555556,26.05902777777778,0)" xlink:href="#N"/><use transform="matrix(0.008680555555555556,0,0,0.008680555555555556,36.423611111111114,0)" xlink:href="#Y"/><use transform="matrix(0.008680555555555556,0,0,0.008680555555555556,43.11631944444444,0)" xlink:href="#W"/><use transform="matrix(0.008680555555555556,0,0,0.008680555555555556,52.50000000000001,0)" xlink:href="#N"/></g><g id="l"><use transform="matrix(0.008680555555555556,0,0,0.008680555555555556,0,0)" xlink:href="#W"/><use transform="matrix(0.008680555555555556,0,0,0.008680555555555556,9.383680555555555,0)" xlink:href="#S"/><use transform="matrix(0.008680555555555556,0,0,0.008680555555555556,19.895833333333336,0)" xlink:href="#N"/><use transform="matrix(0.008680555555555556,0,0,0.008680555555555556,30.26041666666667,0)" xlink:href="#T"/><use transform="matrix(0.008680555555555556,0,0,0.008680555555555556,34.56597222222223,0)" xlink:href="#T"/></g><path d="M140 405l46-156c120 36 205 19 263-150l32-93L54-1118h197c107 313 237 620 324 950 87-331 219-637 326-950h196L606 167c-68 178-176 259-334 259-64 0-113-12-132-21" id="ai"/><g id="m"><use transform="matrix(0.008680555555555556,0,0,0.008680555555555556,0,0)" xlink:href="#Q"/><use transform="matrix(0.008680555555555556,0,0,0.008680555555555556,11.059027777777779,0)" xlink:href="#R"/><use transform="matrix(0.008680555555555556,0,0,0.008680555555555556,20.78125,0)" xlink:href="#ai"/><use transform="matrix(0.008680555555555556,0,0,0.008680555555555556,30.859375,0)" xlink:href="#T"/><use transform="matrix(0.008680555555555556,0,0,0.008680555555555556,35.16493055555556,0)" xlink:href="#ab"/><use transform="matrix(0.008680555555555556,0,0,0.008680555555555556,45.99826388888889,0)" xlink:href="#R"/><use transform="matrix(0.008680555555555556,0,0,0.008680555555555556,55.980902777777786,0)" xlink:href="#ah"/></g><path d="M180 0v-1490h510c348 0 508 194 508 460 0 198-88 351-276 417L1256 0h-220L726-579c-117 2-238 0-356 1V0H180zm190-747h312c235 0 327-108 327-283 0-177-92-293-329-293H370v576" id="aj"/><g id="n"><use transform="matrix(0.008680555555555556,0,0,0.008680555555555556,0,0)" xlink:href="#aj"/><use transform="matrix(0.008680555555555556,0,0,0.008680555555555556,11.180555555555559,0)" xlink:href="#N"/><use transform="matrix(0.008680555555555556,0,0,0.008680555555555556,21.19791666666667,0)" xlink:href="#ae"/><use transform="matrix(0.008680555555555556,0,0,0.008680555555555556,30.842013888888893,0)" xlink:href="#N"/><use transform="matrix(0.008680555555555556,0,0,0.008680555555555556,41.20659722222223,0)" xlink:href="#Y"/><use transform="matrix(0.008680555555555556,0,0,0.008680555555555556,47.899305555555564,0)" xlink:href="#W"/><use transform="matrix(0.008680555555555556,0,0,0.008680555555555556,57.28298611111112,0)" xlink:href="#N"/></g><g id="o"><use transform="matrix(0.008680555555555556,0,0,0.008680555555555556,0,0)" xlink:href="#af"/><use transform="matrix(0.008680555555555556,0,0,0.008680555555555556,10.15625,0)" xlink:href="#ab"/><use transform="matrix(0.008680555555555556,0,0,0.008680555555555556,20.81597222222222,0)" xlink:href="#X"/><use transform="matrix(0.008680555555555556,0,0,0.008680555555555556,31.319444444444443,0)" xlink:href="#X"/><use transform="matrix(0.008680555555555556,0,0,0.008680555555555556,41.82291666666666,0)" xlink:href="#N"/><use transform="matrix(0.008680555555555556,0,0,0.008680555555555556,52.1875,0)" xlink:href="#af"/><use transform="matrix(0.008680555555555556,0,0,0.008680555555555556,62.34375,0)" xlink:href="#O"/><use transform="matrix(0.008680555555555556,0,0,0.008680555555555556,68.15972222222223,0)" xlink:href="#V"/><use transform="matrix(0.008680555555555556,0,0,0.008680555555555556,72.46527777777779,0)" xlink:href="#ab"/><use transform="matrix(0.008680555555555556,0,0,0.008680555555555556,83.12500000000001,0)" xlink:href="#X"/></g><path d="M1096 418H916v-591h-14C865-111 790 24 577 24c-279 0-473-224-473-580 0-354 195-576 474-576 218 0 287 134 324 193h20v-179h174V418zM604-137c203 0 314-172 314-421 0-247-108-413-314-413-212 0-317 181-317 413 0 235 108 421 317 421" id="ak"/><g id="p"><use transform="matrix(0.008680555555555556,0,0,0.008680555555555556,0,0)" xlink:href="#Y"/><use transform="matrix(0.008680555555555556,0,0,0.008680555555555556,6.397569444444445,0)" xlink:href="#N"/><use transform="matrix(0.008680555555555556,0,0,0.008680555555555556,16.76215277777778,0)" xlink:href="#ak"/><use transform="matrix(0.008680555555555556,0,0,0.008680555555555556,27.647569444444446,0)" xlink:href="#P"/><use transform="matrix(0.008680555555555556,0,0,0.008680555555555556,38.15972222222223,0)" xlink:href="#N"/><use transform="matrix(0.008680555555555556,0,0,0.008680555555555556,48.524305555555564,0)" xlink:href="#W"/><use transform="matrix(0.008680555555555556,0,0,0.008680555555555556,57.90798611111112,0)" xlink:href="#O"/></g><path d="M783 20c-382 0-661-292-661-764 0-473 279-766 661-766 302 0 548 182 601 489h-190c-42-204-217-313-411-313-268 0-476 208-476 590 0 381 209 588 476 588 195 0 369-110 411-313h190c-52 303-296 489-601 489" id="al"/><path d="M158 0v-1118h175l1 205c55-151 181-225 313-225 147 0 245 90 285 228 53-141 190-228 352-228 194 0 352 125 352 384V0h-181v-749c0-161-105-225-225-225-151 0-243 103-243 244V0H807v-767c0-124-93-207-219-207-131 0-250 92-250 270V0H158" id="am"/><g id="q"><use transform="matrix(0.008680555555555556,0,0,0.008680555555555556,0,0)" xlink:href="#al"/><use transform="matrix(0.008680555555555556,0,0,0.008680555555555556,12.986111111111112,0)" xlink:href="#ab"/><use transform="matrix(0.008680555555555556,0,0,0.008680555555555556,23.645833333333336,0)" xlink:href="#am"/><use transform="matrix(0.008680555555555556,0,0,0.008680555555555556,39.21875,0)" xlink:href="#am"/><use transform="matrix(0.008680555555555556,0,0,0.008680555555555556,54.79166666666667,0)" xlink:href="#R"/><use transform="matrix(0.008680555555555556,0,0,0.008680555555555556,64.77430555555556,0)" xlink:href="#X"/><use transform="matrix(0.008680555555555556,0,0,0.008680555555555556,75.27777777777779,0)" xlink:href="#ah"/></g><g id="r"><use transform="matrix(0.008680555555555556,0,0,0.008680555555555556,0,0)" xlink:href="#N"/><use transform="matrix(0.008680555555555556,0,0,0.008680555555555556,9.965277777777779,0)" xlink:href="#aa"/><use transform="matrix(0.008680555555555556,0,0,0.008680555555555556,19.270833333333336,0)" xlink:href="#N"/><use transform="matrix(0.008680555555555556,0,0,0.008680555555555556,29.63541666666667,0)" xlink:href="#af"/><use transform="matrix(0.008680555555555556,0,0,0.008680555555555556,39.79166666666667,0)" xlink:href="#P"/><use transform="matrix(0.008680555555555556,0,0,0.008680555555555556,50.30381944444445,0)" xlink:href="#O"/><use transform="matrix(0.008680555555555556,0,0,0.008680555555555556,56.11979166666667,0)" xlink:href="#V"/><use transform="matrix(0.008680555555555556,0,0,0.008680555555555556,60.42534722222222,0)" xlink:href="#ab"/><use transform="matrix(0.008680555555555556,0,0,0.008680555555555556,71.08506944444446,0)" xlink:href="#X"/></g><path d="M580 20c-295 0-476-179-476-409 0-189 123-290 294-416-104-125-173-226-173-362 0-197 144-337 365-337 224 0 362 144 362 321 0 185-174 312-306 405l319 387c38-75 61-165 61-267h173c0 208-62 332-120 406L1287 0h-217L967-124C868-27 716 20 580 20zm279-273L507-675l-51 38c-123 91-167 162-167 254 0 147 113 246 278 246 107 0 210-41 292-116zM538-908l97-72c54-40 136-101 136-206 0-95-68-163-176-163-113 0-189 74-189 181 0 90 53 164 132 260" id="an"/><use transform="matrix(0.008680555555555556,0,0,0.008680555555555556,0,0)" xlink:href="#an" id="s"/><g id="t"><use transform="matrix(0.008680555555555556,0,0,0.008680555555555556,0,0)" xlink:href="#af"/><use transform="matrix(0.008680555555555556,0,0,0.008680555555555556,10.15625,0)" xlink:href="#ab"/><use transform="matrix(0.008680555555555556,0,0,0.008680555555555556,20.81597222222222,0)" xlink:href="#X"/><use transform="matrix(0.008680555555555556,0,0,0.008680555555555556,31.319444444444443,0)" xlink:href="#O"/><use transform="matrix(0.008680555555555556,0,0,0.008680555555555556,37.13541666666666,0)" xlink:href="#Y"/><use transform="matrix(0.008680555555555556,0,0,0.008680555555555556,43.532986111111114,0)" xlink:href="#ab"/><use transform="matrix(0.008680555555555556,0,0,0.008680555555555556,54.192708333333336,0)" xlink:href="#T"/></g><g id="u"><use transform="matrix(0.010850694444444444,0,0,0.010850694444444444,0,0)" xlink:href="#M"/><use transform="matrix(0.010850694444444444,0,0,0.010850694444444444,14.2578125,0)" xlink:href="#S"/><use transform="matrix(0.010850694444444444,0,0,0.010850694444444444,27.39800347222222,0)" xlink:href="#N"/><use transform="matrix(0.010850694444444444,0,0,0.010850694444444444,40.353732638888886,0)" xlink:href="#T"/><use transform="matrix(0.010850694444444444,0,0,0.010850694444444444,45.73567708333333,0)" xlink:href="#T"/></g><g id="v"><use transform="matrix(0.010850694444444444,0,0,0.010850694444444444,0,0)" xlink:href="#T"/><use transform="matrix(0.010850694444444444,0,0,0.010850694444444444,5.381944444444445,0)" xlink:href="#V"/><use transform="matrix(0.010850694444444444,0,0,0.010850694444444444,10.76388888888889,0)" xlink:href="#W"/><use transform="matrix(0.010850694444444444,0,0,0.010850694444444444,22.493489583333336,0)" xlink:href="#O"/><use transform="matrix(0.010850694444444444,0,0,0.010850694444444444,29.546440972222225,0)" xlink:href="#N"/><use transform="matrix(0.010850694444444444,0,0,0.010850694444444444,42.50217013888889,0)" xlink:href="#X"/><use transform="matrix(0.010850694444444444,0,0,0.010850694444444444,55.63151041666667,0)" xlink:href="#N"/><use transform="matrix(0.010850694444444444,0,0,0.010850694444444444,68.58723958333334,0)" xlink:href="#Y"/></g><g id="w"><use transform="matrix(0.010850694444444444,0,0,0.010850694444444444,0,0)" xlink:href="#af"/><use transform="matrix(0.010850694444444444,0,0,0.010850694444444444,12.6953125,0)" xlink:href="#ab"/><use transform="matrix(0.010850694444444444,0,0,0.010850694444444444,26.01996527777778,0)" xlink:href="#X"/><use transform="matrix(0.010850694444444444,0,0,0.010850694444444444,39.14930555555556,0)" xlink:href="#X"/><use transform="matrix(0.010850694444444444,0,0,0.010850694444444444,52.27864583333333,0)" xlink:href="#N"/><use transform="matrix(0.010850694444444444,0,0,0.010850694444444444,65.234375,0)" xlink:href="#af"/><use transform="matrix(0.010850694444444444,0,0,0.010850694444444444,77.9296875,0)" xlink:href="#O"/><use transform="matrix(0.010850694444444444,0,0,0.010850694444444444,85.19965277777777,0)" xlink:href="#V"/><use transform="matrix(0.010850694444444444,0,0,0.010850694444444444,90.58159722222221,0)" xlink:href="#ab"/><use transform="matrix(0.010850694444444444,0,0,0.010850694444444444,103.90624999999997,0)" xlink:href="#X"/></g><g id="x"><use transform="matrix(0.010850694444444444,0,0,0.010850694444444444,0,0)" xlink:href="#R"/><use transform="matrix(0.010850694444444444,0,0,0.010850694444444444,12.47829861111111,0)" xlink:href="#af"/><use transform="matrix(0.010850694444444444,0,0,0.010850694444444444,25.17361111111111,0)" xlink:href="#af"/><use transform="matrix(0.010850694444444444,0,0,0.010850694444444444,37.868923611111114,0)" xlink:href="#N"/><use transform="matrix(0.010850694444444444,0,0,0.010850694444444444,50.82465277777778,0)" xlink:href="#Q"/><use transform="matrix(0.010850694444444444,0,0,0.010850694444444444,64.43142361111111,0)" xlink:href="#O"/><use transform="matrix(0.010850694444444444,0,0,0.010850694444444444,71.484375,0)" xlink:href="#N"/><use transform="matrix(0.010850694444444444,0,0,0.010850694444444444,84.44010416666667,0)" xlink:href="#ah"/></g><path d="M128 0v-1118h300V0H128zm150-1264c-91 0-165-68-165-154 0-85 74-154 165-154 90 0 165 69 165 154 0 86-75 154-165 154" id="ao"/><path d="M428-647V0H128v-1118h283l4 231c63-156 176-245 348-245 232 0 384 159 384 421V0H847v-659c0-139-76-222-202-222-128 0-217 86-217 234" id="ap"/><g id="y"><use transform="matrix(0.010850694444444444,0,0,0.010850694444444444,0,0)" xlink:href="#D"/><use transform="matrix(0.010850694444444444,0,0,0.010850694444444444,15.983072916666664,0)" xlink:href="#E"/><use transform="matrix(0.010850694444444444,0,0,0.010850694444444444,23.33984375,0)" xlink:href="#E"/><use transform="matrix(0.010850694444444444,0,0,0.010850694444444444,31.586371527777775,0)" xlink:href="#F"/><use transform="matrix(0.010850694444444444,0,0,0.010850694444444444,44.48784722222222,0)" xlink:href="#G"/><use transform="matrix(0.010850694444444444,0,0,0.010850694444444444,57.56293402777778,0)" xlink:href="#H"/><use transform="matrix(0.010850694444444444,0,0,0.010850694444444444,70.45355902777777,0)" xlink:href="#ao"/><use transform="matrix(0.010850694444444444,0,0,0.010850694444444444,76.47569444444444,0)" xlink:href="#ap"/><use transform="matrix(0.010850694444444444,0,0,0.010850694444444444,90.31032986111111,0)" xlink:href="#L"/></g><path d="M135 0v-1490h468l242 684c30 94 76 293 111 455 34-161 80-360 110-455l238-684h470V0h-307c0-447-3-765 11-1227-122 503-246 788-395 1227H826C676-435 552-717 427-1215c15 453 11 775 11 1215H135" id="aq"/><path d="M428-647V0H128v-1490h294v586c65-146 175-228 341-228 232 0 385 159 385 421V0H847v-659c0-139-76-222-202-222-128 0-217 86-217 234" id="ar"/><g id="z"><use transform="matrix(0.010850694444444444,0,0,0.010850694444444444,0,0)" xlink:href="#aq"/><use transform="matrix(0.010850694444444444,0,0,0.010850694444444444,20.703125,0)" xlink:href="#F"/><use transform="matrix(0.010850694444444444,0,0,0.010850694444444444,33.60460069444444,0)" xlink:href="#G"/><use transform="matrix(0.010850694444444444,0,0,0.010850694444444444,46.6796875,0)" xlink:href="#ar"/><use transform="matrix(0.010850694444444444,0,0,0.010850694444444444,60.514322916666664,0)" xlink:href="#ao"/><use transform="matrix(0.010850694444444444,0,0,0.010850694444444444,66.53645833333333,0)" xlink:href="#ap"/><use transform="matrix(0.010850694444444444,0,0,0.010850694444444444,80.37109375,0)" xlink:href="#I"/></g><g id="A"><use transform="matrix(0.010850694444444444,0,0,0.010850694444444444,0,0)" xlink:href="#K"/><use transform="matrix(0.010850694444444444,0,0,0.010850694444444444,13.20529513888889,0)" xlink:href="#F"/><use transform="matrix(0.010850694444444444,0,0,0.010850694444444444,26.106770833333336,0)" xlink:href="#J"/><use transform="matrix(0.010850694444444444,0,0,0.010850694444444444,34.61371527777778,0)" xlink:href="#L"/><use transform="matrix(0.010850694444444444,0,0,0.010850694444444444,48.654513888888886,0)" xlink:href="#I"/><use transform="matrix(0.010850694444444444,0,0,0.010850694444444444,61.89236111111111,0)" xlink:href="#E"/></g><path d="M180 0v-1490h510c348 0 508 209 508 474 0 266-160 477-507 477H370V0H180zm190-706h312c236 0 327-133 327-310 0-176-91-307-329-307H370v617" id="as"/><g id="B"><use transform="matrix(0.010850694444444444,0,0,0.010850694444444444,0,0)" xlink:href="#as"/><use transform="matrix(0.010850694444444444,0,0,0.010850694444444444,14.192708333333332,0)" xlink:href="#R"/><use transform="matrix(0.010850694444444444,0,0,0.010850694444444444,26.345486111111104,0)" xlink:href="#ai"/><use transform="matrix(0.010850694444444444,0,0,0.010850694444444444,38.94314236111111,0)" xlink:href="#T"/><use transform="matrix(0.010850694444444444,0,0,0.010850694444444444,44.32508680555555,0)" xlink:href="#ab"/><use transform="matrix(0.010850694444444444,0,0,0.010850694444444444,57.86675347222221,0)" xlink:href="#R"/><use transform="matrix(0.010850694444444444,0,0,0.010850694444444444,70.34505208333333,0)" xlink:href="#ah"/></g><g id="C"><use transform="matrix(0.010850694444444444,0,0,0.010850694444444444,0,0)" xlink:href="#Z"/><use transform="matrix(0.010850694444444444,0,0,0.010850694444444444,13.35720486111111,0)" xlink:href="#aa"/><use transform="matrix(0.010850694444444444,0,0,0.010850694444444444,24.989149305555554,0)" xlink:href="#N"/><use transform="matrix(0.010850694444444444,0,0,0.010850694444444444,37.94487847222222,0)" xlink:href="#af"/><use transform="matrix(0.010850694444444444,0,0,0.010850694444444444,50.64019097222222,0)" xlink:href="#P"/><use transform="matrix(0.010850694444444444,0,0,0.010850694444444444,63.78038194444444,0)" xlink:href="#O"/><use transform="matrix(0.010850694444444444,0,0,0.010850694444444444,71.05034722222221,0)" xlink:href="#V"/><use transform="matrix(0.010850694444444444,0,0,0.010850694444444444,76.43229166666666,0)" xlink:href="#ab"/><use transform="matrix(0.010850694444444444,0,0,0.010850694444444444,89.75694444444441,0)" xlink:href="#X"/></g></defs></g></svg>